<svg width="9" height="9" viewBox="0 0 9 9" fill="none" xmlns="http://www.w3.org/2000/svg">
<path d="M2.35116 1.4107V7.30356C2.35134 7.36322 2.3678 7.4217 2.39875 7.47271C2.4297 7.52371 2.47398 7.56531 2.52681 7.59303C2.57965 7.62074 2.63904 7.63352 2.6986 7.62999C2.75816 7.62646 2.81563 7.60675 2.86482 7.57299L7.12077 4.62656C7.29723 4.50445 7.29723 4.21046 7.12077 4.08802L2.86482 1.14159C2.81573 1.10749 2.75823 1.08749 2.69857 1.08376C2.63892 1.08004 2.57938 1.09274 2.52643 1.12048C2.47349 1.14822 2.42915 1.18994 2.39825 1.2411C2.36735 1.29227 2.35106 1.35093 2.35116 1.4107Z" fill="white"/>
</svg>
